<svg width="60" height="61" viewBox="0 0 60 61" fill="none" xmlns="http://www.w3.org/2000/svg">
<g style="mix-blend-mode:soft-light">
<rect width="60" height="60" rx="30" fill="url(#paint0_linear_3304_5942)"/>
</g>
<g filter="url(#filter0_d_3304_5942)">
<circle cx="30" cy="30" r="20" fill="#979E86"/>
</g>
<path d="M33.3138 38.2725C32.9505 38.2725 32.6115 38.0707 32.4109 37.7351L29.5763 32.992C29.3645 32.6165 29.1386 32.3114 28.8986 32.0768C28.6727 31.8421 28.4185 31.6778 28.1361 31.5839C27.8537 31.49 27.5148 31.4431 27.1195 31.4431H24.8745C24.4417 31.4431 24.0908 31.0543 24.0908 30.5748C24.0908 30.0952 24.4417 29.7064 24.8745 29.7064H28.3267C29.4563 29.7064 30.3035 29.4483 30.8683 28.9319C31.405 28.4264 31.7059 27.7089 31.7708 26.7794C31.7753 26.7147 31.841 26.6778 31.8897 26.7138C31.9517 26.7596 31.9225 26.8667 31.848 26.8667H24.758C24.3895 26.8667 24.0908 26.5357 24.0908 26.1274C24.0908 25.7192 24.3895 25.3882 24.758 25.3882H31.8053C31.8956 25.3882 31.9324 25.5167 31.8587 25.5744C31.8025 25.6182 31.7241 25.5814 31.7106 25.5068C31.5776 24.7742 31.2544 24.2184 30.7412 23.8392C30.2046 23.4168 29.4422 23.2056 28.4538 23.2056H24.758C24.3895 23.2056 24.0908 22.8746 24.0908 22.4663C24.0908 22.058 24.3895 21.7271 24.758 21.7271H35.2418C35.6103 21.7271 35.909 22.058 35.909 22.4663C35.909 22.8746 35.6103 23.2056 35.2418 23.2056H32.1727C32.0521 23.2056 32.0003 23.036 32.0961 22.9548C32.1352 22.9217 32.1882 22.9166 32.2312 22.9431C32.7055 23.2348 33.0772 23.6117 33.3463 24.0739C33.5876 24.4884 33.7516 24.9601 33.8383 25.4889C33.8546 25.5889 33.7515 25.6535 33.6799 25.5901C33.6044 25.5231 33.6471 25.3882 33.7438 25.3882H35.271C35.6234 25.3882 35.909 25.7047 35.909 26.0951V26.1274C35.909 26.5357 35.6103 26.8667 35.2418 26.8667H33.8065C33.6992 26.8667 33.6454 26.723 33.7213 26.6389C33.7959 26.5562 33.9219 26.6124 33.9198 26.7293C33.9043 27.6015 33.7131 28.367 33.3463 29.0258C32.9509 29.7612 32.372 30.3323 31.6096 30.739C30.886 31.1173 30.0105 31.3126 28.9833 31.3251C28.9248 31.3258 28.8774 31.2732 28.8774 31.2084C28.8774 31.1436 28.9248 31.0911 28.9833 31.0911H29.3433C29.9223 31.0911 30.4306 31.2319 30.8683 31.5135C31.306 31.7951 31.7366 32.288 32.1602 32.992L34.2148 36.407C34.6945 37.2044 34.1787 38.2725 33.3138 38.2725Z" fill="white"/>
<path d="M33.5453 41.818H26.4544C20.5453 41.818 18.1816 39.4544 18.1816 33.5453V26.4544C18.1816 20.5453 20.5453 18.1816 26.4544 18.1816H33.5453C39.4544 18.1816 41.818 20.5453 41.818 26.4544V33.5453C41.818 39.4544 39.4544 41.818 33.5453 41.818Z" stroke="white" stroke-width="1.5" stroke-linecap="round" stroke-linejoin="round"/>
<defs>
<filter id="filter0_d_3304_5942" x="0.588913" y="1.7653" width="58.8222" height="58.8222" filterUnits="userSpaceOnUse" color-interpolation-filters="sRGB">
<feFlood flood-opacity="0" result="BackgroundImageFix"/>
<feColorMatrix in="SourceAlpha" type="matrix" values="0 0 0 0 0 0 0 0 0 0 0 0 0 0 0 0 0 0 127 0" result="hardAlpha"/>
<feOffset dy="1.17639"/>
<feGaussianBlur stdDeviation="4.70554"/>
<feComposite in2="hardAlpha" operator="out"/>
<feColorMatrix type="matrix" values="0 0 0 0 0 0 0 0 0 0 0 0 0 0 0 0 0 0 0.1 0"/>
<feBlend mode="normal" in2="BackgroundImageFix" result="effect1_dropShadow_3304_5942"/>
<feBlend mode="normal" in="SourceGraphic" in2="effect1_dropShadow_3304_5942" result="shape"/>
</filter>
<linearGradient id="paint0_linear_3304_5942" x1="35.2273" y1="5.55923e-07" x2="34.5916" y2="44.9763" gradientUnits="userSpaceOnUse">
<stop stop-color="white"/>
<stop offset="1" stop-color="white" stop-opacity="0"/>
</linearGradient>
</defs>
</svg>
