<svg width="32" height="32" viewBox="0 0 32 32" fill="none" xmlns="http://www.w3.org/2000/svg">
<path d="M16.0308 5C11.9043 5 8.55069 8.34855 8.55069 12.4689V16.0664C8.55069 16.8257 8.22655 17.9834 7.84007 18.6307L6.40638 21.0083C5.52123 22.4772 6.13211 24.1079 7.7528 24.6556C13.126 26.4481 18.9231 26.4481 24.2964 24.6556C25.8049 24.1577 26.4656 22.3776 25.6428 21.0083L24.2091 18.6307C23.8351 17.9834 23.511 16.8257 23.511 16.0664V12.4689C23.511 8.361 20.1449 5 16.0308 5Z" stroke="#161616" stroke-width="1.5" stroke-miterlimit="10" stroke-linecap="round"/>
<circle cx="21.5" cy="7.5" r="4.5" fill="#E45F14"/>
<path d="M19 26C19 27.65 17.65 29 16 29C15.18 29 14.42 28.66 13.88 28.12C13.34 27.58 13 26.82 13 26" stroke="#161616" stroke-width="1.5" stroke-miterlimit="10"/>
</svg>
