<svg width="60" height="61" viewBox="0 0 60 61" fill="none" xmlns="http://www.w3.org/2000/svg">
<g style="mix-blend-mode:soft-light">
<rect width="60" height="60" rx="30" fill="url(#paint0_linear_3304_5957)"/>
</g>
<g filter="url(#filter0_d_3304_5957)">
<circle cx="30" cy="30" r="20" fill="#979E86"/>
</g>
<path d="M42.0768 23.6642V26.486C42.0768 28.3283 40.9229 29.4944 39.0999 29.4944H35.1538V21.3437C35.1538 20.0494 36.2038 19 37.4846 19C38.7422 19.0117 39.8961 19.5247 40.7268 20.3643C41.5576 21.2155 42.0768 22.3815 42.0768 23.6642Z" stroke="white" stroke-width="1.5" stroke-miterlimit="10" stroke-linecap="round" stroke-linejoin="round"/>
<path d="M19 24.8302V41.1547C19 42.1226 20.0846 42.6706 20.8461 42.0876L22.8192 40.595C23.2807 40.2452 23.9268 40.2919 24.3422 40.7116L26.2575 42.6589C26.7075 43.1137 27.446 43.1137 27.896 42.6589L29.8345 40.7C30.2383 40.2919 30.8844 40.2452 31.3344 40.595L33.3075 42.0876C34.069 42.6589 35.1536 42.1109 35.1536 41.1547V21.3321C35.1536 20.0494 36.192 19 37.4612 19H24.7691H23.6153C20.1538 19 19 21.0872 19 23.6642V24.8302Z" stroke="white" stroke-width="1.5" stroke-miterlimit="10" stroke-linecap="round" stroke-linejoin="round"/>
<path d="M28.8424 27.2996C28.8386 27.2826 28.8305 27.2664 28.8179 27.2529C28.8306 27.2665 28.8387 27.2827 28.8424 27.2996ZM28.8193 27.3878C29.3141 26.8982 30.1151 26.8998 30.6079 27.3926L30.6079 27.3926C31.102 27.8867 31.102 28.6911 30.6079 29.1854C30.6079 29.1854 30.6079 29.1854 30.6078 29.1854L28.4877 31.3054L28.4877 31.3054C28.2481 31.545 27.9302 31.6767 27.5914 31.6767C27.3975 31.6767 27.2107 31.6336 27.0416 31.5521C26.7926 31.4321 26.4501 31.4089 26.2275 31.6315C26.0133 31.8456 25.9965 32.2196 26.273 32.4032C26.6609 32.6608 27.1158 32.7989 27.5914 32.7989C28.2296 32.7989 28.8301 32.5502 29.2812 32.0989C29.2812 32.0989 29.2812 32.0989 29.2812 32.0989L31.4015 29.9788L31.4015 29.9788C32.3331 29.0468 32.3331 27.5307 31.4014 26.599C30.4696 25.6672 28.9536 25.667 28.0216 26.5984C28.0198 26.6002 28.0182 26.6019 28.0166 26.6038L26.9349 27.6857C26.7158 27.9048 26.7158 28.26 26.935 28.4791C27.1541 28.6982 27.5094 28.6982 27.7284 28.4791L28.8154 27.3919C28.8154 27.3919 28.8154 27.3919 28.8154 27.3919C28.8167 27.3905 28.818 27.3892 28.8193 27.3878ZM28.8153 27.3917C28.8153 27.3917 28.8153 27.3917 28.8153 27.3918L28.8153 27.3917ZM28.1629 26.5985C28.1634 26.5991 28.1639 26.5996 28.1644 26.6001L28.1629 26.5985Z" fill="white" stroke="white" stroke-width="0.2"/>
<path d="M22.5987 32.0207L22.5988 32.0207L24.7188 29.9007C25.5351 29.0844 26.7992 28.9833 27.7267 29.5966C28.0037 29.7798 27.9868 30.154 27.7726 30.3682C27.5501 30.5907 27.2074 30.5676 26.9583 30.4481C26.4864 30.2217 25.9025 30.304 25.5123 30.6942L25.5123 30.6942M22.5987 32.0207L25.4416 30.6235L25.5123 30.6942M22.5987 32.0207C21.6671 32.9526 21.6671 34.4687 22.5988 35.4007L22.5988 35.4007M22.5987 32.0207L22.5988 35.4007M25.5123 30.6942L23.3924 32.8141L25.5123 30.6942ZM23.3924 34.6072C22.8982 34.1129 22.8982 33.3084 23.3924 32.8141L25.9791 35.4007L27.0658 34.3136C27.2849 34.0945 27.2849 33.7392 27.0657 33.5201C26.8466 33.301 26.4913 33.301 26.2722 33.5202L25.1852 34.6075C24.691 35.1015 23.8866 35.1014 23.3924 34.6072ZM23.3924 34.6072C23.3924 34.6072 23.3924 34.6072 23.3924 34.6072L23.3217 34.6779L23.3924 34.6072ZM22.5988 35.4007C23.0649 35.8668 23.6771 36.0997 24.289 36.0997L22.5988 35.4007ZM24.289 36.0997C24.8997 36.0997 25.511 35.8675 25.9766 35.403C25.9774 35.4023 25.9781 35.4016 25.9788 35.4009L24.289 36.0997Z" fill="white" stroke="white" stroke-width="0.2"/>
<defs>
<filter id="filter0_d_3304_5957" x="0.588913" y="1.7653" width="58.8222" height="58.8222" filterUnits="userSpaceOnUse" color-interpolation-filters="sRGB">
<feFlood flood-opacity="0" result="BackgroundImageFix"/>
<feColorMatrix in="SourceAlpha" type="matrix" values="0 0 0 0 0 0 0 0 0 0 0 0 0 0 0 0 0 0 127 0" result="hardAlpha"/>
<feOffset dy="1.17639"/>
<feGaussianBlur stdDeviation="4.70554"/>
<feComposite in2="hardAlpha" operator="out"/>
<feColorMatrix type="matrix" values="0 0 0 0 0 0 0 0 0 0 0 0 0 0 0 0 0 0 0.1 0"/>
<feBlend mode="normal" in2="BackgroundImageFix" result="effect1_dropShadow_3304_5957"/>
<feBlend mode="normal" in="SourceGraphic" in2="effect1_dropShadow_3304_5957" result="shape"/>
</filter>
<linearGradient id="paint0_linear_3304_5957" x1="35.2273" y1="5.55923e-07" x2="34.5916" y2="44.9763" gradientUnits="userSpaceOnUse">
<stop stop-color="white"/>
<stop offset="1" stop-color="white" stop-opacity="0"/>
</linearGradient>
</defs>
</svg>
