<svg width="60" height="61" viewBox="0 0 60 61" fill="none" xmlns="http://www.w3.org/2000/svg">
<g style="mix-blend-mode:soft-light">
<rect width="60" height="60" rx="30" fill="url(#paint0_linear_3304_6006)"/>
</g>
<g filter="url(#filter0_d_3304_6006)">
<circle cx="30" cy="30" r="20" fill="#979E86"/>
</g>
<path d="M31.7476 25.4106H37.0002" stroke="white" stroke-width="1.5" stroke-linecap="round" stroke-linejoin="round"/>
<path d="M23.0015 25.4111H28.2541" stroke="white" stroke-width="1.5" stroke-linecap="round" stroke-linejoin="round"/>
<path d="M31.7476 32.4023H37.0002" stroke="white" stroke-width="1.5" stroke-linecap="round" stroke-linejoin="round"/>
<path d="M31.7476 36.7744H37.0002" stroke="white" stroke-width="1.5" stroke-linecap="round" stroke-linejoin="round"/>
<path d="M34.394 28.0301V22.7847" stroke="white" stroke-width="1.5" stroke-linecap="round" stroke-linejoin="round"/>
<path d="M23.0015 37.2152L28.2541 31.9697" stroke="white" stroke-width="1.5" stroke-linecap="round" stroke-linejoin="round"/>
<path d="M28.2541 37.2152L23.0015 31.9697" stroke="white" stroke-width="1.5" stroke-linecap="round" stroke-linejoin="round"/>
<path d="M33.5453 41.818H26.4544C20.5453 41.818 18.1816 39.4544 18.1816 33.5453V26.4544C18.1816 20.5453 20.5453 18.1816 26.4544 18.1816H33.5453C39.4544 18.1816 41.818 20.5453 41.818 26.4544V33.5453C41.818 39.4544 39.4544 41.818 33.5453 41.818Z" stroke="white" stroke-width="1.5" stroke-linecap="round" stroke-linejoin="round"/>
<defs>
<filter id="filter0_d_3304_6006" x="0.588913" y="1.7653" width="58.8222" height="58.8222" filterUnits="userSpaceOnUse" color-interpolation-filters="sRGB">
<feFlood flood-opacity="0" result="BackgroundImageFix"/>
<feColorMatrix in="SourceAlpha" type="matrix" values="0 0 0 0 0 0 0 0 0 0 0 0 0 0 0 0 0 0 127 0" result="hardAlpha"/>
<feOffset dy="1.17639"/>
<feGaussianBlur stdDeviation="4.70554"/>
<feComposite in2="hardAlpha" operator="out"/>
<feColorMatrix type="matrix" values="0 0 0 0 0 0 0 0 0 0 0 0 0 0 0 0 0 0 0.1 0"/>
<feBlend mode="normal" in2="BackgroundImageFix" result="effect1_dropShadow_3304_6006"/>
<feBlend mode="normal" in="SourceGraphic" in2="effect1_dropShadow_3304_6006" result="shape"/>
</filter>
<linearGradient id="paint0_linear_3304_6006" x1="35.2273" y1="5.55923e-07" x2="34.5916" y2="44.9763" gradientUnits="userSpaceOnUse">
<stop stop-color="white"/>
<stop offset="1" stop-color="white" stop-opacity="0"/>
</linearGradient>
</defs>
</svg>
