<svg width="60" height="61" viewBox="0 0 60 61" fill="none" xmlns="http://www.w3.org/2000/svg">
<g style="mix-blend-mode:soft-light">
<rect width="60" height="60" rx="30" fill="url(#paint0_linear_3304_5990)"/>
</g>
<g filter="url(#filter0_d_3304_5990)">
<circle cx="30" cy="30" r="20" fill="#979E86"/>
</g>
<path d="M38.4129 26.4039C38.4129 28.1467 37.896 29.7452 37.0066 31.0793C35.7086 33.0023 33.6534 34.3604 31.2616 34.709C30.853 34.7811 30.4323 34.8172 29.9996 34.8172C29.567 34.8172 29.1463 34.7811 28.7377 34.709C26.3459 34.3604 24.2907 33.0023 22.9926 31.0793C22.1032 29.7452 21.5864 28.1467 21.5864 26.4039C21.5864 21.7526 25.3483 17.9907 29.9996 17.9907C34.6509 17.9907 38.4129 21.7526 38.4129 26.4039Z" stroke="white" stroke-width="1.5" stroke-linecap="round" stroke-linejoin="round"/>
<path d="M41.1171 37.7858L39.134 38.2545C38.6893 38.3627 38.3408 38.6993 38.2446 39.144L37.824 40.9107C37.5956 41.8723 36.3697 42.1607 35.7327 41.4035L29.9997 34.8172L24.2667 41.4155C23.6297 42.1727 22.4037 41.8843 22.1754 40.9227L21.7547 39.156C21.6466 38.7113 21.298 38.3627 20.8653 38.2666L18.8822 37.7979C17.9688 37.5815 17.6443 36.4397 18.3053 35.7787L22.9927 31.0913C24.2907 33.0143 26.3459 34.3725 28.7377 34.721C29.1463 34.7931 29.567 34.8292 29.9997 34.8292C30.4324 34.8292 30.853 34.7931 31.2617 34.721C33.6534 34.3725 35.7086 33.0143 37.0067 31.0913L41.694 35.7787C42.3551 36.4277 42.0306 37.5695 41.1171 37.7858Z" stroke="white" stroke-width="1.5" stroke-linecap="round" stroke-linejoin="round"/>
<path d="M30.6968 22.7747L31.4059 24.1929C31.502 24.3852 31.7544 24.5775 31.9828 24.6135L33.2688 24.8299C34.0861 24.9621 34.2784 25.563 33.6895 26.152L32.6919 27.1495C32.5236 27.3178 32.4275 27.6423 32.4876 27.8827L32.776 29.1206C33.0044 30.0942 32.4876 30.4787 31.6222 29.9619L30.4203 29.2528C30.204 29.1206 29.8434 29.1206 29.6271 29.2528L28.4252 29.9619C27.5598 30.4667 27.043 30.0942 27.2714 29.1206L27.5598 27.8827C27.6079 27.6543 27.5238 27.3178 27.3555 27.1495L26.358 26.152C25.769 25.563 25.9613 24.9741 26.7786 24.8299L28.0646 24.6135C28.281 24.5775 28.5334 24.3852 28.6295 24.1929L29.3386 22.7747C29.6872 22.0055 30.3122 22.0055 30.6968 22.7747Z" stroke="white" stroke-width="1.5" stroke-linecap="round" stroke-linejoin="round"/>
<defs>
<filter id="filter0_d_3304_5990" x="0.588913" y="1.7653" width="58.8222" height="58.8222" filterUnits="userSpaceOnUse" color-interpolation-filters="sRGB">
<feFlood flood-opacity="0" result="BackgroundImageFix"/>
<feColorMatrix in="SourceAlpha" type="matrix" values="0 0 0 0 0 0 0 0 0 0 0 0 0 0 0 0 0 0 127 0" result="hardAlpha"/>
<feOffset dy="1.17639"/>
<feGaussianBlur stdDeviation="4.70554"/>
<feComposite in2="hardAlpha" operator="out"/>
<feColorMatrix type="matrix" values="0 0 0 0 0 0 0 0 0 0 0 0 0 0 0 0 0 0 0.1 0"/>
<feBlend mode="normal" in2="BackgroundImageFix" result="effect1_dropShadow_3304_5990"/>
<feBlend mode="normal" in="SourceGraphic" in2="effect1_dropShadow_3304_5990" result="shape"/>
</filter>
<linearGradient id="paint0_linear_3304_5990" x1="35.2273" y1="5.55923e-07" x2="34.5916" y2="44.9763" gradientUnits="userSpaceOnUse">
<stop stop-color="white"/>
<stop offset="1" stop-color="white" stop-opacity="0"/>
</linearGradient>
</defs>
</svg>
